<svg xmlns="http://www.w3.org/2000/svg" width="204.3" height="41.141" viewBox="0 0 204.3 41.141">
  <defs>
    <style>
      .cls-1 {
        fill: #cc9d41;
      }
    </style>
  </defs>
  <g id="logo-lecione" transform="translate(-110 102.041)">
    <path id="Path_305" data-name="Path 305" class="cls-1" d="M202.2-100.8c-2.7,2.7-.1,7.8,3.8,7.8,2.9,0,5.4-4.3,4-6.9C208.8-102.3,204.2-102.8,202.2-100.8Z"/>
    <path id="Path_306" data-name="Path 306" class="cls-1" d="M110-79.5V-61h25v-8H120V-98H110Z"/>
    <path id="Path_307" data-name="Path 307" class="cls-1" d="M145-88.1c-8.9,4.7-9.9,18.4-1.9,24.4,5,3.7,16.6,3.2,20-.9,1-1.2.9-1.9-.8-3.6-1.7-1.6-2.4-1.8-4.1-.9-3.1,1.7-7.7,1.3-9.5-.7a6.563,6.563,0,0,1-1.7-2.5c0-.4,4.6-.7,10.1-.7h10.2l-.7-4.3c-.8-5.2-3.2-8.7-7.7-10.9A14.585,14.585,0,0,0,145-88.1Zm11.8,6.9c2.1,2.7,1.4,3.2-4.3,3.2-6.1,0-7.3-1.6-3.3-4.4A5.372,5.372,0,0,1,156.8-81.2Z"/>
    <path id="Path_308" data-name="Path 308" class="cls-1" d="M177.4-88.6c-6.5,2.9-9.7,10.4-7.5,17.6,2.9,9.7,16,13.1,24.1,6.3l3.1-2.6-3-1.8c-2.8-1.7-3.2-1.7-6.2-.2-2.8,1.4-3.6,1.4-5.7.2a7.221,7.221,0,0,1-3-9.5c1.8-3.6,4.7-4.6,8.5-2.7,2.8,1.3,3.4,1.3,5.7-.3,3.1-2,3-3-.6-5.7C189.4-89.8,181.5-90.5,177.4-88.6Z"/>
    <path id="Path_309" data-name="Path 309" class="cls-1" d="M201.7-89.3c-.4.3-.7,6.9-.7,14.5V-61h9V-90h-3.8C204.1-90,202-89.7,201.7-89.3Z"/>
    <path id="Path_310" data-name="Path 310" class="cls-1" d="M223.2-88c-3.4,1.5-4.7,2.9-6.3,6.6-6,13.5,7.5,24.9,21.8,18.5,5-2.3,7.3-6.3,7.3-12.6,0-6-2.4-10-7.5-12.5C233.3-90.5,228.7-90.5,223.2-88ZM235-81c4,4,1.4,13-3.8,13a8.2,8.2,0,0,1-4-1.6C222.6-72.8,225.4-83,231-83A6.917,6.917,0,0,1,235-81Z"/>
    <path id="Path_311" data-name="Path 311" class="cls-1" d="M251.4-88.7c-.2.7-.3,7.1-.2,14.3l.3,12.9,4.3.3,4.2.3v-7.5c0-8.7,1.3-12.4,4.8-13.3,4.8-1.2,5.7.5,6,11.1l.3,9.6H280V-72.6c0-11.4,0-11.6-2.9-14.5a10.224,10.224,0,0,0-13.4-.9,12.584,12.584,0,0,1-3.1,2c-.3,0-.6-.9-.6-2,0-1.7-.7-2-4-2C253.6-90,251.7-89.5,251.4-88.7Z"/>
    <path id="Path_312" data-name="Path 312" class="cls-1" d="M294.5-89.3c-6,1.6-9.5,6.7-9.5,14,0,11.8,11.2,17.8,22.8,12.2l4.4-2.2-2.5-2.4c-2-2.1-2.8-2.3-4.5-1.4-3.1,1.7-7.7,1.3-9.5-.7a6.563,6.563,0,0,1-1.7-2.5c0-.4,4.6-.7,10.1-.7h10.2l-.7-4.3C312-86.9,304.3-91.8,294.5-89.3Zm9.3,8.1c2.1,2.7,1.4,3.2-4.3,3.2-6.1,0-7.3-1.6-3.3-4.4A5.372,5.372,0,0,1,303.8-81.2Z"/>
  </g>
</svg>
